<svg t="1681468985567" class="icon" viewBox="0 0 1024 1024" version="1.1" xmlns="http://www.w3.org/2000/svg" p-id="2631" width="200" height="200"><path d="M988.8 643.2v28.8c-3.2 12.8-6.4 22.4-9.6 35.2-3.2 12.8-9.6 22.4-16 32-6.4 9.6-12.8 16-22.4 19.2-9.6 3.2-16 6.4-22.4 6.4-6.4 0-12.8 0-19.2-3.2-6.4-3.2-16-3.2-25.6-6.4-9.6-3.2-19.2-3.2-32 0-9.6 0-22.4 3.2-32 6.4-9.6 3.2-19.2 9.6-28.8 16-16 16-25.6 35.2-28.8 57.6-3.2 22.4 0 41.6 9.6 64 6.4 12.8 6.4 28.8-3.2 41.6-3.2 6.4-9.6 12.8-19.2 16-9.6 6.4-19.2 12.8-28.8 16-9.6 6.4-22.4 9.6-32 12.8-12.8 3.2-22.4 3.2-32 3.2-6.4 0-12.8-3.2-16-6.4-6.4-6.4-9.6-9.6-12.8-16-6.4-22.4-19.2-38.4-38.4-54.4s-38.4-22.4-64-22.4c-22.4 0-44.8 6.4-64 22.4-19.2 16-32 32-38.4 54.4-3.2 9.6-9.6 12.8-16 19.2-6.4 3.2-12.8 6.4-22.4 6.4-9.6 0-19.2-3.2-32-6.4s-25.6-6.4-35.2-12.8c-12.8-6.4-22.4-9.6-32-19.2-9.6-6.4-16-12.8-22.4-19.2-3.2-6.4-6.4-9.6-6.4-16s3.2-16 6.4-28.8c6.4-16 9.6-35.2 9.6-54.4s-9.6-38.4-25.6-57.6c-9.6-9.6-22.4-16-35.2-19.2-12.8-3.2-25.6-3.2-38.4-3.2-12.8 0-28.8 3.2-44.8 9.6-12.8 3.2-22.4 3.2-32-3.2-6.4-3.2-16-9.6-22.4-19.2-6.4-9.6-12.8-22.4-16-32-6.4-12.8-9.6-25.6-12.8-38.4-3.2-9.6-3.2-22.4-3.2-28.8 3.2-16 9.6-25.6 19.2-28.8 19.2-9.6 38.4-22.4 54.4-41.6 16-19.2 25.6-41.6 25.6-64 0-25.6-9.6-44.8-25.6-64-16-19.2-35.2-32-54.4-38.4-6.4-3.2-12.8-6.4-16-16 0-6.4-3.2-12.8-3.2-22.4 0-9.6 0-19.2 3.2-28.8 3.2-9.6 6.4-22.4 9.6-32 6.4-12.8 12.8-19.2 16-28.8 6.4-9.6 12.8-16 19.2-19.2 6.4-3.2 12.8-6.4 16-3.2 6.4 0 12.8 0 19.2 3.2 19.2 9.6 41.6 9.6 64 6.4 22.4-3.2 41.6-12.8 60.8-28.8 9.6-9.6 12.8-19.2 19.2-32 3.2-12.8 6.4-22.4 6.4-35.2v-32c0-9.6-3.2-16-3.2-19.2 0-3.2-3.2-9.6-3.2-16v-16c3.2-6.4 9.6-16 22.4-22.4 9.6-6.4 22.4-12.8 35.2-19.2 12.8-6.4 25.6-9.6 35.2-9.6 9.6-3.2 19.2-3.2 25.6-3.2 9.6 0 16 3.2 22.4 9.6 6.4 6.4 9.6 12.8 9.6 19.2 6.4 19.2 19.2 35.2 38.4 48 16 12.8 38.4 19.2 60.8 19.2 25.6 0 44.8-6.4 64-19.2 19.2-12.8 32-32 38.4-51.2 3.2-6.4 6.4-9.6 12.8-16s12.8-9.6 19.2-9.6c9.6 0 19.2 0 32 3.2s22.4 6.4 32 12.8c9.6 6.4 22.4 9.6 28.8 19.2 9.6 6.4 16 16 22.4 25.6 3.2 6.4 3.2 12.8 3.2 19.2 0 6.4-3.2 12.8-3.2 12.8-9.6 19.2-12.8 41.6-9.6 64 3.2 22.4 12.8 41.6 28.8 57.6s35.2 25.6 60.8 28.8c25.6 3.2 44.8-3.2 67.2-12.8 9.6-6.4 16-9.6 22.4-6.4 6.4 0 16 3.2 19.2 9.6 12.8 9.6 19.2 22.4 28.8 41.6 6.4 19.2 12.8 38.4 16 60.8 0 12.8 0 22.4-6.4 28.8-6.4 6.4-9.6 9.6-16 12.8-22.4 6.4-38.4 19.2-54.4 38.4s-22.4 41.6-22.4 64 6.4 44.8 19.2 60.8c12.8 16 28.8 28.8 51.2 38.4 3.2 3.2 9.6 6.4 12.8 9.6 6.4 3.2 9.6 12.8 12.8 22.4zM512 736c32 0 60.8-6.4 86.4-16 28.8-12.8 51.2-28.8 70.4-48 19.2-19.2 35.2-44.8 48-70.4 12.8-25.6 16-57.6 16-86.4 0-32-6.4-60.8-16-86.4-12.8-25.6-28.8-51.2-48-70.4-19.2-19.2-44.8-35.2-70.4-48-28.8-19.2-57.6-22.4-86.4-22.4-32 0-60.8 6.4-86.4 16-25.6 12.8-51.2 28.8-70.4 48-19.2 19.2-35.2 44.8-48 70.4-12.8 28.8-19.2 57.6-19.2 89.6 0 32 6.4 60.8 16 86.4 12.8 25.6 28.8 51.2 48 70.4 19.2 19.2 44.8 35.2 70.4 48 28.8 12.8 57.6 19.2 89.6 19.2z" fill="#d81e06" p-id="2632"></path></svg>
